<svg width="480" height="80" viewBox="0 0 480 80" fill="none" xmlns="http://www.w3.org/2000/svg">
  <defs>
    <linearGradient id="mark" x1="8" y1="8" x2="72" y2="72" gradientUnits="userSpaceOnUse">
      <stop offset="0%" stop-color="#38BDF8"/>
      <stop offset="50%" stop-color="#818CF8"/>
      <stop offset="100%" stop-color="#A78BFA"/>
    </linearGradient>
    <linearGradient id="bg" x1="0" y1="0" x2="80" y2="80" gradientUnits="userSpaceOnUse">
      <stop offset="0%" stop-color="#0F172A"/>
      <stop offset="100%" stop-color="#1E293B"/>
    </linearGradient>
    <linearGradient id="dot" x1="0" y1="0" x2="1" y2="1">
      <stop offset="0%" stop-color="#34D399"/>
      <stop offset="100%" stop-color="#0EA5E9"/>
    </linearGradient>
    <linearGradient id="wordmark" x1="100" y1="0" x2="360" y2="0" gradientUnits="userSpaceOnUse">
      <stop offset="0%" stop-color="#0F172A"/>
      <stop offset="100%" stop-color="#1E293B"/>
    </linearGradient>
  </defs>
  <!-- Icon container -->
  <rect width="80" height="80" rx="18" fill="url(#bg)"/>
  <!-- Signal arcs -->
  <path d="M55 17 C63 21 68 30 68 40" stroke="#38BDF8" stroke-width="2.5" stroke-linecap="round" fill="none" opacity="0.4"/>
  <path d="M55 24 C61 27 64 33 64 40" stroke="#38BDF8" stroke-width="2" stroke-linecap="round" fill="none" opacity="0.65"/>
  <!-- N mark -->
  <path d="M17 60V20H27L50 47V20H63V60H53L30 33V60H17Z" fill="url(#mark)"/>
  <!-- Live dot -->
  <circle cx="63" cy="40" r="3.5" fill="url(#dot)"/>
  <circle cx="63" cy="40" r="6" fill="url(#dot)" opacity="0.22"/>

  <!-- Wordmark: NovaPilot -->
  <text x="100" y="50" font-family="'Inter', -apple-system, BlinkMacSystemFont, sans-serif" font-size="28" font-weight="700" letter-spacing="-0.8" fill="#0F172A">NovaPilot</text>
  <!-- AI tag -->
  <text x="305" y="50" font-family="'Inter', -apple-system, BlinkMacSystemFont, sans-serif" font-size="28" font-weight="700" letter-spacing="-0.8" fill="#38BDF8">AI</text>
</svg>
