<svg width="256" height="256" viewBox="0 0 256 256" fill="none" xmlns="http://www.w3.org/2000/svg">
  <defs>
    <linearGradient id="bg" x1="0" y1="0" x2="256" y2="256" gradientUnits="userSpaceOnUse">
      <stop offset="0%" stop-color="#0F172A"/>
      <stop offset="100%" stop-color="#1E293B"/>
    </linearGradient>
    <linearGradient id="mark" x1="40" y1="40" x2="216" y2="216" gradientUnits="userSpaceOnUse">
      <stop offset="0%" stop-color="#38BDF8"/>
      <stop offset="50%" stop-color="#818CF8"/>
      <stop offset="100%" stop-color="#A78BFA"/>
    </linearGradient>
    <linearGradient id="arc1" x1="0" y1="0" x2="1" y2="0">
      <stop offset="0%" stop-color="#38BDF8" stop-opacity="0"/>
      <stop offset="100%" stop-color="#38BDF8" stop-opacity="0.7"/>
    </linearGradient>
    <linearGradient id="dot" x1="0" y1="0" x2="1" y2="1">
      <stop offset="0%" stop-color="#34D399"/>
      <stop offset="100%" stop-color="#0EA5E9"/>
    </linearGradient>
  </defs>
  <!-- Container with subtle border -->
  <rect width="256" height="256" rx="56" fill="url(#bg)"/>
  <rect x="1" y="1" width="254" height="254" rx="55" stroke="white" stroke-opacity="0.07" stroke-width="2"/>
  <!-- Signal arcs (top-right) -->
  <path d="M174 52 C198 66 214 96 214 128" stroke="#38BDF8" stroke-width="8" stroke-linecap="round" fill="none" opacity="0.25"/>
  <path d="M174 72 C192 84 202 106 202 128" stroke="#38BDF8" stroke-width="7" stroke-linecap="round" fill="none" opacity="0.45"/>
  <path d="M174 92 C186 102 192 114 192 128" stroke="#38BDF8" stroke-width="6" stroke-linecap="round" fill="none" opacity="0.65"/>
  <!-- Geometric N mark -->
  <path d="M54 192V64H88L168 152V64H202V192H168L88 104V192H54Z" fill="url(#mark)"/>
  <!-- Live dot -->
  <circle cx="202" cy="128" r="10" fill="url(#dot)"/>
  <circle cx="202" cy="128" r="18" fill="url(#dot)" opacity="0.2"/>
</svg>
